<svg width="104" height="39" fill="none" xmlns="http://www.w3.org/2000/svg"><path fill-rule="evenodd" clip-rule="evenodd" d="M87.259 27.81h8.45s.53 0 .53-.43c.158-6.62-8.322-6.862-9.17.287-.045.174.19.143.19.143Zm12.277.507H87.16s-.219 0-.204.152C85.89 39.339 97.161 39.77 99.438 34.52l.378.114a6.665 6.665 0 0 1-4.652 3.896c-14.615 2.897-15.72-15.372-3.782-16.469 6.452-.582 8.071 4.683 8.132 6.279m-35.871-3.003v12.951h2.897V27.6c0-3.744 2.27-4.894 4.675-5.03 3.305-.182 4.448 1.331 4.448 4.357v11.347h2.852V26.926c0-3.154-1.03-5.023-5.038-5.295-1.68-.099-3.556.151-6.241 1.913-.333.205-.65.53-.681 0v-1.618c0-.076 0-.152-.182-.136l-2.685.31-.045 3.237Zm-24.6-.19-4.017 9.418-.166.401-4.925-10.47-1.066-2.428h-3.2l1.082 2.534 6.415 13.715.922.008 5.757-13.54 1.15-2.694h-.643l-1.309 3.056Zm6.738-11.029 7.134 6.528.234-.12-2.322-6.408H45.78Zm.873 13.692h8.45s.53 0 .53-.43c.158-6.62-8.322-6.862-9.169.287-.045.174.19.143.19.143Zm12.285.507H46.571s-.22 0-.197.152C45.3 39.339 56.58 39.77 58.856 34.52l.37.114a6.672 6.672 0 0 1-4.644 3.896c-14.615 2.897-15.72-15.372-3.782-16.47 6.452-.582 8.071 4.683 8.14 6.279M16.393 26.91l-4.062-9.115c-.068-.151-.099-.144-.144 0-.045.144-3.828 9.13-3.835 9.13l8.04-.014ZM3.692 38.349h-1.21c3.666-8.805 7.302-17.63 10.908-26.476h1.127l11.952 26.476h-5.023l-4.675-10.65h-8.76l-4.32 10.65ZM74.318 8.431l-2.587-4.94-1.052 4.668h-.968l1.694-7.134L74.318 6.7l2.92-5.674 1.694 7.134h-.968l-1.06-4.668-2.586 4.94ZM85.54 2.803 84.232 5.33h2.564L85.54 2.803Zm0-1.808 3.662 7.141h-1.037l-1.044-2.095h-3.146l-1.052 2.103h-1.036L85.54.995ZM11.682 2.817l-1.279 2.526h2.565l-1.286-2.526Zm0-1.808 3.669 7.14h-1.037l-1.051-2.11H10.1L9.057 8.142H8.02l3.66-7.133Zm81.236 7.218V1.358h.817v6.09h2.595v.78h-3.412Zm6.746 0V1.358h4.138v.75h-3.207v1.966h3.207v.764h-3.207v2.625h3.207v.764h-4.138ZM.197 8.172V1.304H4.51v.749H1.173v1.974H4.51v.756H1.173v2.633H4.51v.756H.197Zm61.487.025v-6.87h1.71c.356-.01.714.015 1.066.077.214.049.417.139.598.264.223.163.396.386.499.643.124.279.186.58.181.885a1.618 1.618 0 0 1-.499 1.286 2.133 2.133 0 0 1-1.46.44h-.151l2.768 3.275h-1.074L62.675 4.92h-.129v3.276h-.862Zm.84-6.18v2.269h.665c.466.045.935-.042 1.354-.25a.982.982 0 0 0 .34-.862 1.089 1.089 0 0 0-.317-.916 2.45 2.45 0 0 0-1.347-.264l-.696.022Zm-9.268 6.18V1.32h4.1v.757h-3.177v1.967h3.177V4.8h-3.177v2.633h3.177v.764h-4.1Zm-10.334-.039V1.289h.923v2.64h4.115V1.29h.938v6.869h-.938v-3.45h-4.115v3.45h-.923Zm-6.51 0v-6.09h-1.944V1.29h4.705v.78h-1.937v6.089h-.824ZM18.956 1.304h.9v4.274a2.013 2.013 0 1 0 4.01 0V1.304h.9v4.274a2.783 2.783 0 0 1-.718 2.088 3.782 3.782 0 0 1-4.365 0 2.755 2.755 0 0 1-.757-2.088l.03-4.274Z" fill="#111"/></svg>