<svg width="94" height="33" fill="none" xmlns="http://www.w3.org/2000/svg"><path d="M14.4 30.756v.505h44.087v-.505H14.4Zm63.347-14.454h-3.333v5.11h-.695c-1.982 0-3.427-.499-4.318-1.47a4.748 4.748 0 0 1-1.357-3.276c-.001-.87.244-1.72.707-2.453a4.703 4.703 0 0 1 1.894-1.712 5.813 5.813 0 0 1 2.62-.594c1.338.01 2.665.245 3.926.697l.556.198v-2.35l-.322-.065a18.726 18.726 0 0 0-4.06-.472 12.094 12.094 0 0 0-4.418.792 6.988 6.988 0 0 0-3.188 2.388 6.18 6.18 0 0 0-1.165 3.616c0 1.3.408 2.565 1.165 3.615a6.949 6.949 0 0 0 3.188 2.363c1.458.533 3 .793 4.551.767a22.783 22.783 0 0 0 3.908-.371l.265-.051h.082v-6.732h-.006ZM.143 23.207h3.39v-5.512h6.836v-2.031H3.532v-3.258h7.632v-2.031H.143v12.832Zm26.208-12.832h-3.396v12.832h8.838v-2.025h-5.41l-.032-10.807Zm13.347-.37c-2.342 0-4.166.639-5.429 1.833a7.368 7.368 0 0 0-1.899 4.944c0 1.83.678 3.594 1.9 4.943 1.262 1.22 3.086 1.84 5.428 1.84s4.173-.639 5.429-1.84a7.401 7.401 0 0 0 1.888-4.943c0-1.828-.673-3.59-1.888-4.944-1.256-1.214-3.08-1.833-5.429-1.833Zm2.803 10.38a4.009 4.009 0 0 1-2.806 1.148 4.01 4.01 0 0 1-2.806-1.149c-.745-.78-1.136-1.986-1.136-3.602 0-1.616.391-2.823 1.136-3.59a3.978 3.978 0 0 1 2.806-1.162c1.05 0 2.057.417 2.806 1.162.745.767 1.13 1.974 1.13 3.59 0 1.616-.385 2.823-1.13 3.602ZM17.883 10.38h-3.39v12.826h3.39V10.381Zm70.004.008h-2.525l-5.915 12.819h3.106s1.446-3.239 1.502-3.347h5.139l1.508 3.347h3.157l-5.972-12.82Zm-3.276 7.626c.24-.524 1.509-3.455 1.717-3.973l.208-.639.196.64s1.685 3.985 1.673 3.966c-.013-.02-3.756-.026-3.775.006h-.02Zm-26.465-.69a5.2 5.2 0 0 0 1.471-.85 5.18 5.18 0 0 0 1.339-1.373 3 3 0 0 0 .51-1.616 2.372 2.372 0 0 0-.795-1.705 4.759 4.759 0 0 0-2.076-1.073 15.635 15.635 0 0 0-3.788-.333h-4.753v12.832h3.396v-10.8h1.344c3.466 0 3.29 1.15 3.29 1.443 0 1.514-2.387 2.44-3.302 2.747v1.622l5.05 4.963h4.293l-5.979-5.857Zm7.496 12.218-1.06 2.88h.745s.208-.568.215-.606h.883l.202.607h.77l-1.054-2.881h-.7Zm-.056 1.73c0-.037.328-.88.404-1.091.044.134.353 1.015.379 1.092h-.783Zm8.12-1.73h-.732v2.88h.732v-2.88Zm-2.588 2.645v-.703l-.07-.21-.138-.167s-.076-.05-.076-.057a.793.793 0 0 0 .24-.218c.07-.142.105-.3.1-.46a.891.891 0 0 0-.05-.319 1.142 1.142 0 0 0-.17-.268 1.38 1.38 0 0 0-.271-.172.81.81 0 0 0-.354-.07H68.82v2.88h.739v-1.06h.505a.33.33 0 0 1 .259.076c.066.07.102.165.1.262l.039.345.056.326v.05h.752l-.05-.114a1.15 1.15 0 0 1-.102-.121Zm-.795-1.457a.407.407 0 0 1-.272.077h-.631v-.639h.631a.42.42 0 0 1 .272.077.328.328 0 0 1 .082.255.34.34 0 0 1-.082.23Zm7.225.39a.775.775 0 0 0-.24-.255l-.278-.134-.214-.058a3.352 3.352 0 0 0-.398-.114l-.234-.084-.094-.063v-.192l.088-.07.095-.039h.31l.138.058c.025.033.053.065.082.096l.038.172v.07h.713v-.076a.96.96 0 0 0-.088-.441.967.967 0 0 0-.631-.466l-.41-.051-.373.05a.91.91 0 0 0-.354.167c-.102.08-.19.177-.258.287a.858.858 0 0 0-.089.403c0 .12.026.24.076.35a.744.744 0 0 0 .196.244l.277.16.303.095s.095 0 .29.083l.24.077.152.096.05.127-.037.115-.095.09-.158.044h-.322l-.158-.07-.107-.128-.044-.198v-.076h-.751v.076a.974.974 0 0 0 .094.467c.069.13.166.24.284.326a.957.957 0 0 0 .386.191l.435.051c.17.003.34-.016.505-.057.136-.041.262-.108.373-.198a.86.86 0 0 0 .24-.307c.047-.12.073-.247.075-.377a.734.734 0 0 0-.107-.44Zm-14.881-1.578h-1.263v2.88h.632v-1.04h.63a.985.985 0 0 0 .74-.256.92.92 0 0 0 .24-.638.879.879 0 0 0-.262-.714.857.857 0 0 0-.717-.232Zm0 1.278h-.6v-.722h.631c.26 0 .373.109.373.364a.349.349 0 0 1-.12.304.338.338 0 0 1-.316.067l.032-.013ZM15.414.634h-.902v3.832h2.89V3.7h-1.988V.634Zm5.333 0L19.15 4.466h.935l.385-.958h1.407c.045.128.367.958.367.958h.984L21.618.634h-.87Zm-.082 2.165c.07-.217.386-.894.505-1.214.133.326.436.997.524 1.214h-1.029ZM44.334.634l-1.59 3.832h.946s.328-.83.373-.958h1.42c.044.128.353.958.353.958h.991L45.217.634h-.883Zm-.076 2.165c.076-.217.392-.894.518-1.214.126.326.43.997.511 1.214h-1.029ZM28.195 2.39a.87.87 0 0 0 .41-.76c0-.639-.46-.996-1.262-.996h-2.007v3.832h1.894c.978 0 1.553-.415 1.553-1.111a.973.973 0 0 0-.14-.579.956.956 0 0 0-.448-.386Zm-1.969-1.022h1.01c.385 0 .467.147.467.384 0 .357-.353.383-.467.383h-1.01v-.767Zm1.098 2.344h-1.098v-.894h1.098c.253 0 .55.077.55.44 0 .365-.297.454-.55.454ZM32.968.544a1.96 1.96 0 0 0-1.096.34 1.995 1.995 0 0 0-.725.9 2.022 2.022 0 0 0 .435 2.178c.277.278.63.467 1.014.543.383.076.78.035 1.14-.117.361-.153.67-.41.885-.74.216-.329.33-.716.33-1.111a1.936 1.936 0 0 0-.558-1.438 1.891 1.891 0 0 0-1.425-.555Zm0 3.264c-.808 0-1.092-.639-1.092-1.277a1.124 1.124 0 0 1 .256-.894 1.1 1.1 0 0 1 .837-.384c.789 0 1.073.639 1.073 1.278 0 .638-.278 1.277-1.074 1.277ZM55.421.545c-.524 0-1.026.21-1.397.585a2.015 2.015 0 0 0 0 2.828 1.962 1.962 0 0 0 2.794 0 2.015 2.015 0 0 0 0-2.828 1.964 1.964 0 0 0-1.397-.585Zm0 3.264c-.802 0-1.08-.639-1.08-1.278 0-.638.278-1.277 1.08-1.277a1.082 1.082 0 0 1 .83.387 1.109 1.109 0 0 1 .25.89c0 .62-.29 1.278-1.08 1.278Zm-14.739-.416a.827.827 0 0 0-.404-.786.987.987 0 0 0 .48-.888c0-.696-.524-1.085-1.414-1.085h-1.957v3.832h.909V2.984h.896c.524 0 .675.186.675.843-.019.207.025.414.127.594v.045h1.067l-.19-.185a1.522 1.522 0 0 1-.19-.888ZM39.28 2.25h-1.023v-.9h1.023c.41 0 .574.12.574.433s-.202.467-.574.467Zm27.389 1.144a.82.82 0 0 0-.41-.786.992.992 0 0 0 .467-.888c0-.696-.511-1.092-1.408-1.092h-1.982V4.46h.915V2.978h.91c.523 0 .675.186.675.844-.018.204.021.41.113.594v.044h1.105l-.19-.185a1.431 1.431 0 0 1-.195-.881ZM65.261 2.25h-1.01v-.9h.998c.404 0 .574.121.574.434s-.183.466-.562.466ZM48.006 1.4h1.262v3.054h.91V1.4h1.262V.628h-3.403l-.031.773ZM60.719.628h-.915v3.826h.915V.628Zm9.384 2.26h2.001v-.74h-1.982v-.716h2.14V.659h-3.05v3.833H72.3v-.767h-2.178l-.02-.837Zm6.891-.638-.978-.236-.164-.045c-.347-.09-.385-.243-.385-.351 0-.345.517-.358.631-.358.694 0 .726.396.739.53v.102h.896v-.115c0-.753-.631-1.277-1.616-1.277-.745 0-1.547.364-1.547 1.175 0 .352.17.818.96 1.016l.517.121.632.173a.328.328 0 0 1 .246.345c0 .268-.272.434-.713.434-.341 0-.89-.096-.89-.639V3.01h-.916v.115c0 .875.631 1.399 1.749 1.399.77 0 1.666-.326 1.666-1.246a1.074 1.074 0 0 0-.236-.66 1.052 1.052 0 0 0-.59-.368Z" fill="#111"/></svg>