<svg width="120" height="38" fill="none" xmlns="http://www.w3.org/2000/svg"><path opacity=".6" d="M34.232 8.484H12.425v7.325h21.807V8.484Z" fill="#111"/><path d="M1.41 27.888v8.417h5.325v.971H.354v-9.388H1.41Zm14.837 3.885v1.598c0 2.469-1.544 4.047-4.187 4.047-2.662 0-4.206-1.578-4.206-4.026v-1.579c0-2.448 1.544-4.046 4.206-4.046 2.663-.02 4.187 1.578 4.187 4.006Zm-1.077.02c0-1.983-1.077-3.116-3.13-3.116-2.052 0-3.13 1.133-3.13 3.116v1.578c0 2.004 1.078 3.116 3.13 3.116 2.033 0 3.11-1.112 3.11-3.136v-1.558h.02Zm7.314 5.484h-1.057l-4.309-9.388h1.22l3.637 8.295h.02l3.618-8.295h1.24l-4.37 9.388Zm13.092-9.388v.97H29.56v3.177h4.776v.87H29.56v3.42h6.198v.951h-7.255v-9.388h7.073Zm11.318 6.151v3.237h-1.057V34.08l-4.107-6.19h1.26l3.354 5.341 3.394-5.341h1.24l-4.085 6.15Zm13.29-2.267v1.598c0 2.469-1.545 4.047-4.187 4.047-2.662 0-4.207-1.578-4.207-4.026v-1.579c0-2.448 1.545-4.046 4.207-4.046 2.642-.02 4.187 1.578 4.187 4.006Zm-1.077.02c0-1.983-1.078-3.116-3.13-3.116-2.053 0-3.13 1.133-3.13 3.116v1.578c0 2.004 1.077 3.116 3.13 3.116 2.032 0 3.11-1.112 3.11-3.136v-1.558h.02Zm11.689-3.904v5.544c0 2.428-1.504 3.986-4.207 3.986-2.642 0-4.187-1.538-4.187-3.966v-5.564h1.078v5.564c0 2.266 1.504 2.974 3.109 2.974 2.012 0 3.15-.93 3.15-2.974v-5.564h1.057Zm6.136 5.422h-2.418v3.966h-1.057v-9.388h3.76c2.276 0 3.455 1.052 3.455 2.65 0 1.315-.915 2.469-2.602 2.63v.02l3.435 4.068h-1.32l-3.253-3.946Zm-2.418-.87h2.683c1.91 0 2.418-.971 2.418-1.861 0-.91-.488-1.76-2.398-1.76h-2.703v3.621Zm20.181-2.975-.712.445c-.447-.768-1.544-1.254-2.804-1.254-1.83 0-2.48.83-2.48 1.66 0 2.427 6.097.849 6.097 4.309 0 1.74-1.483 2.772-3.699 2.772-1.646 0-3.15-.951-3.699-2.104l.793-.405c.468.91 1.687 1.558 2.906 1.558 1.667 0 2.663-.567 2.663-1.8 0-2.57-6.138-.81-6.138-4.351 0-1.437 1.3-2.59 3.496-2.59 1.585.04 3.028.708 3.577 1.76Zm8.942 7.811-4.004-4.472-1.83 1.68v2.792h-1.056v-9.388h1.057v5.422h.02l5.366-5.422h1.402l-4.227 4.229 4.654 5.159h-1.382Zm4.535-9.388v9.388h-1.057v-9.388h1.057Zm4.123 0 5.935 7.668h.02V27.89h.975v9.388h-.833l-6.036-7.77h-.02v7.77h-.996V27.89h.955ZM46.325 1.443H.313v7.042h46.014V1.443Zm0 14.347H.313v7.04h46.014v-7.04Zm7.03-14.347h5.568V22.91h-5.508s.061-21.59-.06-21.468Zm41.465-.182h5.568v21.65H94.88s.061-21.791-.06-21.65ZM70.792 7.473l4.309-1.821S74.024.937 68.333.937c-5.69 0-7.337 4.593-7.337 6.536 0 1.942 1.951 5.22 5.813 6.414 3.861 1.194 3.861 2.833 3.861 3.338 0 .506-.508 1.76-2.459 1.76s-2.845-1.517-3.74-3.075l-4.227 2.084s2.032 5.281 7.642 5.281 8.028-4.41 8.028-7.425c0-3.015-2.094-4.472-5.63-6.111-3.536-1.639-4.309-1.942-4.309-3.278 0-1.335 1.139-1.517 2.216-1.517 1.077 0 2.601 1.214 2.601 2.529Zm32.297 15.439h4.552V11.075l6.382 11.837h4.227V1.262h-4.369v11.634l-6.199-11.634h-4.614c.021 0 .224 21.65.021 21.65Zm-17.68-21.65H77.38l.122 21.65h8.21s7.581-1.457 7.581-11.068c0-9.611-7.885-10.582-7.885-10.582Zm-1.016 17.765h-1.545V5.147h1.362s3.292-.243 3.292 6.616c-.02 6.859-3.11 7.264-3.11 7.264Z" fill="#111"/></svg>