<svg width="120" height="50" fill="none" xmlns="http://www.w3.org/2000/svg"><path d="M.543 28.114h1.471v8.994h4.58v1.344H.544V28.114Zm10.561-.058h1.02l4.56 10.377h-1.47l-1.354-3.06H9.5l-1.27 3.06H6.759l4.345-10.377Zm2.138 6.002-1.643-3.737-1.52 3.737h3.163Zm8.766 4.374V28.134h2.55a3.664 3.664 0 0 1 2.452.775 2.62 2.62 0 0 1 .902 2.099 2.717 2.717 0 0 1-.441 1.554 2.649 2.649 0 0 1-1.275.981c.36.248.682.547.956.888.48.624.916 1.28 1.31 1.962.353.583.637 1.024.853 1.319l.534.74h-1.73l-.442-.681-.088-.123-.285-.407-.451-.755-.49-.805a8.023 8.023 0 0 0-.83-1.01 3.116 3.116 0 0 0-.676-.544 2.217 2.217 0 0 0-1.015-.167h-.383v4.492l-1.451-.02ZM23.9 29.37h-.437v3.256h.555a4.074 4.074 0 0 0 1.52-.191c.267-.123.49-.325.637-.579.157-.267.237-.573.23-.883a1.565 1.565 0 0 0-.254-.882 1.358 1.358 0 0 0-.716-.56 5.127 5.127 0 0 0-1.555-.161h.02Zm11.144-1.403a5.425 5.425 0 0 1 3.923 1.515 5.047 5.047 0 0 1 1.564 3.796 4.974 4.974 0 0 1-1.579 3.776 5.591 5.591 0 0 1-3.992 1.471 5.26 5.26 0 0 1-3.83-1.471 5.008 5.008 0 0 1-1.535-3.747 5.119 5.119 0 0 1 1.545-3.825 5.341 5.341 0 0 1 3.904-1.515Zm.059 1.402a3.921 3.921 0 0 0-2.87 1.109 3.797 3.797 0 0 0-1.122 2.83 3.717 3.717 0 0 0 1.128 2.775 4.134 4.134 0 0 0 5.659-.025 3.796 3.796 0 0 0 1.142-2.81 3.718 3.718 0 0 0-1.142-2.76 3.825 3.825 0 0 0-2.796-1.119Zm15.993 6.671v1.623a7.474 7.474 0 0 1-3.698.888 5.6 5.6 0 0 1-2.889-.697 5.027 5.027 0 0 1-1.878-1.912 5.242 5.242 0 0 1-.691-2.634 5.055 5.055 0 0 1 1.584-3.79 5.394 5.394 0 0 1 3.923-1.535 8.999 8.999 0 0 1 3.56.848v1.589a6.9 6.9 0 0 0-3.486-1.035 4 4 0 0 0-2.904 1.118 3.744 3.744 0 0 0-1.152 2.805 3.696 3.696 0 0 0 1.138 2.79 3.996 3.996 0 0 0 2.903 1.095 6.543 6.543 0 0 0 3.59-1.153Zm8.962-7.926h1.472v10.299h-1.472V33.92H54.37v4.492h-1.472V28.114h1.472v4.458h5.688v-4.458Zm3.7 0h5.767v1.314h-4.31v3.144h4.168v1.324h-4.169v3.212h4.453v1.315h-5.91V28.114Zm6.934 6.248h3.625v1.442h-3.625v-1.442Zm5.256 4.072V28.1h3.227a3.29 3.29 0 0 1 2.325.8 2.763 2.763 0 0 1 .868 2.138 2.943 2.943 0 0 1-.447 1.598 2.55 2.55 0 0 1-1.216.981 6.06 6.06 0 0 1-2.212.314H77.42v4.477l-1.472.025Zm2.972-9.019h-1.5v3.227h1.593a1.99 1.99 0 0 0 1.349-.436 1.53 1.53 0 0 0 .49-1.212c0-1.049-.632-1.579-1.927-1.579h-.005Zm9.712-1.448a5.42 5.42 0 0 1 3.924 1.515 5.046 5.046 0 0 1 1.569 3.796 4.978 4.978 0 0 1-1.584 3.776 5.586 5.586 0 0 1-3.992 1.471 5.272 5.272 0 0 1-3.83-1.471 5.022 5.022 0 0 1-1.53-3.747 5.134 5.134 0 0 1 1.54-3.825 5.346 5.346 0 0 1 3.903-1.515Zm.06 1.402a3.924 3.924 0 0 0-2.874 1.108 3.815 3.815 0 0 0-1.123 2.83 3.735 3.735 0 0 0 1.127 2.776 4.139 4.139 0 0 0 5.665-.025 3.79 3.79 0 0 0 1.137-2.81 3.712 3.712 0 0 0-1.137-2.76 3.84 3.84 0 0 0-2.786-1.119h-.01Zm9.744 4.74-1.108-.682a5.032 5.032 0 0 1-1.472-1.27 2.408 2.408 0 0 1-.441-1.432 2.56 2.56 0 0 1 .834-1.962 3.085 3.085 0 0 1 2.167-.76 4.063 4.063 0 0 1 2.34.726v1.677a3.366 3.366 0 0 0-2.37-1.074c-.415-.016-.826.1-1.171.334a1.03 1.03 0 0 0-.461.858c.004.32.124.629.338.868.314.34.682.627 1.089.848l1.113.667c1.243.755 1.862 1.713 1.859 2.874a2.65 2.65 0 0 1-.819 2.016 2.978 2.978 0 0 1-2.129.774 4.413 4.413 0 0 1-2.746-.941v-1.874a3.432 3.432 0 0 0 2.732 1.516c.414.015.819-.123 1.138-.388a1.213 1.213 0 0 0 .456-.98c-.007-.632-.456-1.23-1.35-1.795Zm7.558-6.053h1.025l4.56 10.377h-1.471l-1.353-3.06h-4.36l-1.27 3.06h-1.501l4.37-10.377Zm2.143 6.002-1.643-3.737-1.52 3.737h3.163Zm9.036-5.944h1.765l-3.756 4.86v5.458h-1.471v-5.458l-3.762-4.86h1.761l2.722 3.556 2.741-3.556ZM0 42.014h.755v5.075h2.369v.76H0v-5.835Zm5.465 0h.53l2.358 5.885h-.77l-.7-1.732H4.635L3.98 47.9h-.775l2.26-5.885Zm1.108 3.398-.848-2.114-.79 2.114h1.638Zm4.15 2.446h-1.78v-5.845h1.378a2.13 2.13 0 0 1 1.016.196c.236.118.43.304.559.535.13.24.197.51.19.784a1.275 1.275 0 0 1-.799 1.236c.357.065.681.25.918.525.228.275.348.623.338.98.005.28-.066.554-.206.795a1.564 1.564 0 0 1-.608.574 2.074 2.074 0 0 1-1.005.22Zm-.377-5.09h-.652v1.75h.49a1.16 1.16 0 0 0 .853-.254.877.877 0 0 0 .255-.657c0-.56-.318-.839-.96-.839h.014Zm.054 2.496h-.706v1.854h.745c.284.018.569-.02.839-.108a.824.824 0 0 0 .353-.333.951.951 0 0 0 .132-.49.854.854 0 0 0-.142-.491.834.834 0 0 0-.397-.334 2.296 2.296 0 0 0-.839-.098h.015Zm5.453-3.323a2.67 2.67 0 0 1 2.03.858 3.212 3.212 0 0 1 0 4.282 2.756 2.756 0 0 1-2.064.848 2.592 2.592 0 0 1-1.962-.848 2.972 2.972 0 0 1-.794-2.119 3.03 3.03 0 0 1 .799-2.163 2.624 2.624 0 0 1 1.991-.858Zm.03.795a1.923 1.923 0 0 0-1.472.628 2.26 2.26 0 0 0-.583 1.598 2.22 2.22 0 0 0 .583 1.57 2.014 2.014 0 0 0 2.943 0 2.26 2.26 0 0 0 .588-1.594 2.202 2.202 0 0 0-.588-1.56 1.912 1.912 0 0 0-1.472-.642Zm3.767 5.122v-5.846h1.315a1.8 1.8 0 0 1 1.27.437 1.55 1.55 0 0 1 .49 1.186c.008.31-.072.617-.23.883a1.4 1.4 0 0 1-.662.554c.186.14.35.305.49.49.25.353.476.722.677 1.104.186.327.333.577.441.75l.28.417h-.898l-.23-.382a.347.347 0 0 0-.044-.074l-.147-.23-.23-.427-.256-.456a5.17 5.17 0 0 0-.427-.569 1.575 1.575 0 0 0-.353-.309 1.122 1.122 0 0 0-.524-.093h-.197v2.54l-.765.025Zm.981-5.125h-.225v1.84h.289c.266.018.533-.019.785-.109a.736.736 0 0 0 .328-.328.98.98 0 0 0 .123-.49.952.952 0 0 0-.133-.491.72.72 0 0 0-.372-.319 2.525 2.525 0 0 0-.8-.103h.005Zm5.337-.719h.53l2.358 5.885h-.77l-.7-1.732h-2.247l-.657 1.732h-.775l2.26-5.885Zm1.108 3.398-.848-2.114-.79 2.114h1.638Zm1.137-3.398h4.414v.745h-1.835v5.1h-.755v-5.1h-1.804l-.02-.745Zm7.189-.073a2.67 2.67 0 0 1 2.03.859 3.212 3.212 0 0 1 0 4.28 2.763 2.763 0 0 1-2.065.85 2.614 2.614 0 0 1-1.986-.85 2.991 2.991 0 0 1-.79-2.118 3.03 3.03 0 0 1 .8-2.162 2.622 2.622 0 0 1 2.01-.859Zm.03.795a1.923 1.923 0 0 0-1.472.628 2.256 2.256 0 0 0-.579 1.598 2.2 2.2 0 0 0 .584 1.57 2.01 2.01 0 0 0 2.942 0 2.26 2.26 0 0 0 .589-1.594 2.201 2.201 0 0 0-.589-1.56 1.897 1.897 0 0 0-1.476-.642Zm3.736-.722h.755v5.835h-.755v-5.835Zm1.962 5.844v-5.846h1.32a1.79 1.79 0 0 1 1.264.437 1.548 1.548 0 0 1 .49 1.186c.009.31-.071.616-.23.883a1.373 1.373 0 0 1-.662.554c.186.14.351.305.49.49.25.353.477.721.677 1.104.187.327.334.577.442.75l.28.417h-.898l-.23-.382a.348.348 0 0 0-.045-.074l-.147-.23-.23-.427-.255-.456a4.164 4.164 0 0 0-.427-.569 1.685 1.685 0 0 0-.348-.309 1.148 1.148 0 0 0-.53-.093h-.196v2.54l-.765.025Zm.98-5.125h-.225v1.839h.29c.266.02.533-.018.784-.108a.77.77 0 0 0 .334-.329c.08-.15.12-.32.117-.49a.953.953 0 0 0-.132-.49.721.721 0 0 0-.373-.32 2.507 2.507 0 0 0-.794-.102Zm3.65-.719h2.987v.745h-2.221v1.775h2.158v.75h-2.158V47.1h2.305v.746h-3.06l-.01-5.831Zm6.013 5.84v-5.841h1.775a3.399 3.399 0 0 1 1.697.358c.42.248.761.613.98 1.05.246.465.373.984.368 1.51 0 .383-.067.764-.2 1.123a2.943 2.943 0 0 1-.584.942 2.525 2.525 0 0 1-.893.627c-.173.081-.356.14-.544.177a7.41 7.41 0 0 1-.952.044l-1.648.01Zm1.696-5.086h-.946v4.34h.98c.296.01.59-.02.878-.088a1.86 1.86 0 0 0 .525-.216c.141-.09.27-.2.383-.323a2.31 2.31 0 0 0 .554-1.584 2.119 2.119 0 0 0-.574-1.535 1.851 1.851 0 0 0-.49-.363 1.908 1.908 0 0 0-.52-.187 4.928 4.928 0 0 0-.79-.044Zm4.084-.754h2.986v.745H58.3v1.775h2.152v.75h-2.153V47.1h2.3v.746h-3.055l.01-5.831Zm3.881 5.844v-5.846h1.319c.462-.023.915.133 1.265.437a1.55 1.55 0 0 1 .49 1.186c.008.31-.071.616-.23.883a1.373 1.373 0 0 1-.662.554c.186.14.35.305.49.49.25.353.476.721.677 1.104.186.327.334.577.442.75l.279.417h-.898l-.23-.382a.348.348 0 0 0-.044-.074l-.147-.23-.23-.427-.256-.456a4.164 4.164 0 0 0-.426-.569 1.685 1.685 0 0 0-.349-.309 1.147 1.147 0 0 0-.53-.093H62.2v2.54l-.765.025Zm.98-5.125h-.225v1.839h.29c.265.02.533-.018.784-.108a.77.77 0 0 0 .333-.329c.08-.15.12-.32.118-.49a.952.952 0 0 0-.132-.49.721.721 0 0 0-.373-.32 2.508 2.508 0 0 0-.8-.102h.005Zm7.844-.719h.707v5.835h-.76v-4.54l-1.619 2.255h-.137l-1.638-2.256v4.541h-.755v-5.835h.716l1.745 2.398 1.742-2.398Zm3.517 0h.53l2.359 5.885h-.77l-.701-1.732h-2.246l-.658 1.732h-.755l2.241-5.885Zm1.104 3.398-.849-2.114-.784 2.114h1.633Zm1.139-3.398h4.413v.745h-1.834v5.1h-.76v-5.1h-1.805l-.014-.745Zm7.195-.073a2.67 2.67 0 0 1 2.03.858c.543.58.834 1.35.81 2.144a2.943 2.943 0 0 1-.82 2.138 2.745 2.745 0 0 1-2.064.848 2.609 2.609 0 0 1-1.962-.848 2.972 2.972 0 0 1-.794-2.119 3.051 3.051 0 0 1 .8-2.163 2.64 2.64 0 0 1 2-.858Zm.03.795a1.923 1.923 0 0 0-1.472.628 2.26 2.26 0 0 0-.583 1.598c-.018.58.191 1.143.583 1.57a2.015 2.015 0 0 0 2.943 0 2.26 2.26 0 0 0 .588-1.594 2.202 2.202 0 0 0-.588-1.56 1.904 1.904 0 0 0-1.471-.642Zm3.737-.722h.74v5.075h2.369v.76h-3.124l.015-5.835Zm6.365-.073a2.687 2.687 0 0 1 2.035.858c.543.58.834 1.35.81 2.144a2.944 2.944 0 0 1-.82 2.138 2.757 2.757 0 0 1-2.064.848 2.594 2.594 0 0 1-1.962-.848 2.972 2.972 0 0 1-.794-2.119 3.031 3.031 0 0 1 .8-2.163 2.625 2.625 0 0 1 1.995-.858Zm.03.795a1.923 1.923 0 0 0-1.472.627 2.26 2.26 0 0 0-.583 1.6 2.22 2.22 0 0 0 .583 1.568 2.015 2.015 0 0 0 2.943 0 2.26 2.26 0 0 0 .588-1.593 2.201 2.201 0 0 0-.588-1.56 1.908 1.908 0 0 0-1.471-.642Zm6.604 2.249h1.765v2.452a4.414 4.414 0 0 1-1.927.49 2.707 2.707 0 0 1-2.09-.848 2.942 2.942 0 0 1-.78-2.085 3.07 3.07 0 0 1 .81-2.177 2.656 2.656 0 0 1 2.03-.868 3.37 3.37 0 0 1 .844.103c.347.103.685.234 1.01.392v.854c-.55-.38-1.2-.592-1.868-.608a1.903 1.903 0 0 0-1.472.652 2.506 2.506 0 0 0 0 3.227 1.996 1.996 0 0 0 1.526.632c.37-.015.735-.093 1.078-.23h.074v-1.216h-1v-.77Zm2.853-2.971h.755v5.835h-.755v-5.835Zm7.23 6.214-.76.814a3.17 3.17 0 0 1-.736-.138 4.584 4.584 0 0 1-.784-.328 8.427 8.427 0 0 1-1.06-.716 2.576 2.576 0 0 1-1.584-1.01 3.25 3.25 0 0 1 .177-4.051 2.647 2.647 0 0 1 2.03-.858 2.695 2.695 0 0 1 2.03.848 3 3 0 0 1 .805 2.138 3.113 3.113 0 0 1-.608 1.903 2.623 2.623 0 0 1-1.58 1.03l.201.083a4 4 0 0 0 1.339.397c.182-.007.361-.045.53-.112Zm-2.717-5.493a1.903 1.903 0 0 0-1.471.633c-.393.44-.6 1.014-.579 1.603-.019.578.191 1.14.584 1.565a2.008 2.008 0 0 0 1.471.638 2.016 2.016 0 0 0 1.471-.638 2.411 2.411 0 0 0 0-3.159 1.911 1.911 0 0 0-1.486-.642h.01Zm7.426-.721h.76v3.315a4.03 4.03 0 0 1-.093 1.015c-.046.198-.119.39-.215.569a1.748 1.748 0 0 1-.319.407 2.279 2.279 0 0 1-1.633.598 2.315 2.315 0 0 1-1.653-.593 1.878 1.878 0 0 1-.319-.412 2.33 2.33 0 0 1-.216-.56A4.788 4.788 0 0 1 111 45.32v-3.305h.75v3.315c-.027.388.03.778.167 1.142.116.22.296.4.515.515.251.137.534.205.819.197.401.014.792-.124 1.094-.388a1.21 1.21 0 0 0 .318-.49c.08-.32.113-.651.099-.981l.009-3.31Zm1.798 0h2.987v.745h-2.231v1.775h2.152v.75h-2.152V47.1h2.3v.746h-3.056v-5.831ZM69.8 0H50.67v24.496H69.8V0Z" fill="#111"/></svg>