<svg width="133" height="41" fill="none" xmlns="http://www.w3.org/2000/svg"><path d="M49.65 37.71c.41.208.863.318 1.323.32.602 0 1.126-.327 1.126-.912 0-1.209-2.437-1.016-2.437-2.5 0-1.01.819-1.39 1.65-1.39.437.005.869.084 1.28.232l-.058.546a2.968 2.968 0 0 0-1.126-.237c-.64 0-1.094.199-1.094.848 0 .952 2.501.836 2.501 2.5 0 1.08-1.01 1.454-1.771 1.454a3.822 3.822 0 0 1-1.427-.238l.032-.624ZM56.107 33.89h-1.158v3.298c0 .463.173.842.678.842.2 0 .399-.041.582-.122l.039.52c-.246.093-.506.14-.768.142-1.113 0-1.157-.772-1.157-1.704V33.89h-.992v-.54h.991v-1.209l.64-.218v1.453h1.158l-.013.514ZM60.634 38.288c-.47.183-.968.279-1.471.283-1.683 0-2.31-1.138-2.31-2.668 0-1.53.858-2.675 2.137-2.675 1.433 0 2.021 1.164 2.021 2.533v.322h-3.473c0 1.08.576 1.928 1.67 1.928a3.225 3.225 0 0 0 1.426-.379v.656Zm-.307-2.745c0-.894-.358-1.774-1.28-1.774a1.66 1.66 0 0 0-1.101.584 1.676 1.676 0 0 0-.389 1.19h2.77ZM62.207 34.546c0-.386 0-.791-.038-1.196h.582v.906a1.6 1.6 0 0 1 1.637-1.029c1.28 0 1.734.843 1.734 1.961v3.26h-.64v-3.093c0-.957-.339-1.58-1.203-1.58-1.144 0-1.503 1.008-1.503 1.863v2.816h-.64l.071-3.908ZM68.37 31.988h-.64v-.843h.64v.843Zm-.64 1.362h.64v5.098h-.64V33.35ZM48.184 31.988h-.64v-.843h.64v.843Zm-.64 1.362h.64v5.098h-.64V33.35ZM45.57 31.988h-.64v-.843h.64v.843Zm-.64 0h.64v6.46h-.64v-6.46ZM69.953 34.545c.007-.399-.008-.798-.045-1.195h.608v.906a1.612 1.612 0 0 1 1.644-1.029c1.279 0 1.733.843 1.733 1.961v3.26h-.64v-3.093c0-.957-.339-1.581-1.202-1.581-1.145 0-1.503 1.01-1.503 1.864v2.816h-.64l.045-3.909ZM79.508 38.03c0 1.422-.64 2.572-2.38 2.572a5.043 5.043 0 0 1-1.535-.276l.051-.643c.464.231.973.354 1.49.36 1.613 0 1.753-1.183 1.753-2.623a1.562 1.562 0 0 1-1.541.996c-1.625 0-2.143-1.42-2.143-2.57 0-1.556.601-2.675 2.092-2.675a1.661 1.661 0 0 1 1.58.7v-.578h.64l-.007 4.738Zm-2.175-.115c1.139 0 1.548-1.086 1.548-2.012 0-1.234-.365-2.134-1.503-2.134-1.139 0-1.51 1.144-1.51 2.134s.403 2.012 1.465 2.012ZM85.974 33.89h-1.158v3.298c0 .463.173.842.678.842.2 0 .398-.041.582-.122l.038.52c-.245.093-.505.141-.767.142-1.113 0-1.152-.772-1.152-1.704V33.89h-.978v-.54h.998v-1.209l.64-.218v1.453h1.157l-.038.514ZM89.083 33.228c1.637 0 2.367 1.286 2.367 2.675 0 1.388-.73 2.668-2.367 2.668-1.638 0-2.373-1.286-2.373-2.668 0-1.382.73-2.675 2.373-2.675Zm0 4.803c1.094 0 1.682-.952 1.682-2.128 0-1.177-.588-2.134-1.682-2.134-1.094 0-1.682.95-1.682 2.134 0 1.183.582 2.128 1.682 2.128ZM96.816 37.6l1.465-4.25h.64l-2.009 5.863c-.237.701-.595 1.402-1.28 1.402-.228-.001-.455-.03-.677-.084l.057-.54c.15.057.308.085.467.084.538 0 .717-.45.915-1.112l.134-.45-1.803-5.143h.646l1.445 4.23ZM101.81 33.228c1.637 0 2.366 1.286 2.366 2.675 0 1.388-.729 2.668-2.366 2.668-1.638 0-2.374-1.286-2.374-2.668 0-1.382.73-2.675 2.374-2.675Zm0 4.803c1.093 0 1.675-.952 1.675-2.128 0-1.177-.582-2.134-1.675-2.134-1.094 0-1.683.95-1.683 2.134 0 1.183.582 2.128 1.683 2.128ZM109.316 37.285c-.007.399.008.798.045 1.196h-.64v-.94a1.612 1.612 0 0 1-1.644 1.029c-1.279 0-1.733-.842-1.733-1.96v-3.26h.639v3.1c0 .963.339 1.58 1.203 1.58 1.145 0 1.503-1.009 1.503-1.857V33.35h.64l-.013 3.934ZM110.89 34.489c.01-.38-.003-.76-.039-1.138h.64v.977a1.5 1.5 0 0 1 1.279-1.1c.149.005.297.024.441.058v.643c-.15-.04-.305-.059-.46-.058-.998 0-1.279 1.119-1.279 2.038v2.52h-.64l.058-3.94ZM116.584 37.71c.41.208.864.318 1.324.32.601 0 1.126-.327 1.126-.912 0-1.209-2.437-1.016-2.437-2.5 0-1.01.818-1.39 1.65-1.39.436.005.868.084 1.279.232l-.058.546a2.964 2.964 0 0 0-1.125-.237c-.64 0-1.094.199-1.094.848 0 .952 2.501.836 2.501 2.5 0 1.08-1.004 1.454-1.772 1.454a3.82 3.82 0 0 1-1.426-.238l.032-.624ZM120.842 30.944h.633v4.494l2.264-2.09h.806l-2.475 2.263 2.776 2.835h-.864l-2.507-2.616v2.616h-.633v-7.502ZM126.452 31.988h-.64v-.843h.64v.843Zm-.64 1.362h.64v5.098h-.64V33.35ZM128.034 34.545c0-.385 0-.79-.038-1.195h.64v.906a1.62 1.62 0 0 1 1.644-1.029c1.279 0 1.733.843 1.733 1.961v3.26h-.64v-3.093c0-.957-.339-1.581-1.202-1.581-1.145 0-1.503 1.01-1.503 1.864v2.816h-.64l.006-3.909Z" fill="#111"/><path fill-rule="evenodd" clip-rule="evenodd" d="M132.955 25.458a3.7 3.7 0 0 1-1.804.412c-1.036 0-1.573-1.286-1.573-2.083a9.325 9.325 0 0 1-5.923 2.198c-3.429 0-5.936-1.761-5.936-5.355a5.123 5.123 0 0 1 .728-2.988 5.083 5.083 0 0 1 2.304-2.026c2.175-1.035 5.622-1.144 8.699-.797v-1.87c0-2.25-.473-3.6-3.429-3.6-2.042.08-4.075.314-6.082.7-.16-.443-.691-1.42-.493-1.928.071-.18.416-.341.64-.425a16.919 16.919 0 0 1 3.882-.951c.55-.064 1.12-.103 1.721-.129a10.1 10.1 0 0 1 3.102.309c2.175.643 3.441 2.16 3.716 4.577.046.52.065 1.04.058 1.562v9.707c.032.902.178 1.796.435 2.661l-.045.026Zm-7.356-8.575a9.494 9.494 0 0 0-1.919.327c-1.496.431-2.744 1.35-2.744 3.215 0 2.25 1.51 3.06 2.904 3.06 3.582 0 5.444-2.102 5.648-2.418v-1.285c0-.958.032-1.858.039-2.81a24.234 24.234 0 0 0-3.934-.09M29.17 22.384c-1.904.47-3.85.75-5.808.836a7.216 7.216 0 0 1-3.307-.643c-1.426-.733-2.239-2.398-2.239-5.252h10.72c.685 0 1.03-.373 1.037-.803a16.798 16.798 0 0 0-.41-4.455 7.727 7.727 0 0 0-1.823-3.549 6.717 6.717 0 0 0-5.079-1.929h-.76c-2.405.155-4.286 1.08-5.45 2.675-1.164 1.594-1.644 3.664-1.714 6.788-.04 1.276.076 2.552.345 3.8a8.688 8.688 0 0 0 1.28 3.117 6.661 6.661 0 0 0 3.198 2.385c1.34.458 2.749.676 4.164.643a18.838 18.838 0 0 0 5.065-.842.959.959 0 0 0 .755-.836 8.625 8.625 0 0 0 0-1.986l.026.051ZM18.737 11.096a3.536 3.536 0 0 1 2.974-1.678h.487a3.58 3.58 0 0 1 3.198 1.55 7.292 7.292 0 0 1 .991 3.69H17.81c.04-1.242.367-2.456.953-3.55M77.736 22.384c-1.902.47-3.845.75-5.802.836a7.24 7.24 0 0 1-3.313-.643c-1.42-.733-2.232-2.398-2.232-5.252h10.72c.678 0 1.023-.373 1.036-.804a17.058 17.058 0 0 0-.41-4.455 7.662 7.662 0 0 0-1.829-3.548 6.737 6.737 0 0 0-5.072-1.929h-.761c-2.405.155-4.292 1.08-5.45 2.675-1.157 1.594-1.644 3.664-1.714 6.788-.04 1.276.076 2.552.346 3.8a8.683 8.683 0 0 0 1.279 3.117 6.68 6.68 0 0 0 3.198 2.385c1.338.458 2.745.675 4.157.643a18.845 18.845 0 0 0 5.073-.842.971.971 0 0 0 .754-.836 8.648 8.648 0 0 0 0-1.986l.02.051ZM67.31 11.096a3.582 3.582 0 0 1 1.278-1.22 3.561 3.561 0 0 1 1.702-.458h.48a3.566 3.566 0 0 1 3.198 1.55c.655 1.117 1 2.392.998 3.689h-8.584c.036-1.24.36-2.456.947-3.549M43.16 16.714a7.67 7.67 0 0 0-2.994-1.929c-.64-.238-1.28-.424-1.861-.598a11.84 11.84 0 0 1-2.52-.932c-.288-.167-1.682-1.054-1.107-2.571.397-1.06 2.252-1.286 3.736-1.286a25.46 25.46 0 0 1 4.56.463l.486.084c.23-.519.405-1.06.525-1.614a.807.807 0 0 0-.589-.925 21.81 21.81 0 0 0-5.251-.746 12.045 12.045 0 0 0-3.678.482 4.402 4.402 0 0 0-2.616 1.928 5.487 5.487 0 0 0 .435 5.51c1.049 1.285 2.782 1.825 4.477 2.353 1.695.527 3.429 1.067 4.1 2.359a2.692 2.692 0 0 1-.48 3.214c-.639.534-1.803.816-3.39.816a27.682 27.682 0 0 1-5.826-.893 8.261 8.261 0 0 0 0 2.038.947.947 0 0 0 .76.777c1.646.509 3.352.788 5.073.83 1.789.094 3.57-.285 5.168-1.1a4.753 4.753 0 0 0 1.803-1.868c.417-.779.61-1.659.557-2.541a5.571 5.571 0 0 0-1.337-3.813M12.054 16.714a7.588 7.588 0 0 0-2.994-1.929c-.608-.238-1.247-.424-1.861-.598a11.97 11.97 0 0 1-2.52-.932c-.288-.167-1.683-1.054-1.1-2.571.396-1.06 2.245-1.286 3.729-1.286a25.46 25.46 0 0 1 4.56.463l.486.084c.23-.519.405-1.06.525-1.614a.807.807 0 0 0-.589-.925A21.81 21.81 0 0 0 7.04 6.66a12.045 12.045 0 0 0-3.678.482A4.402 4.402 0 0 0 .745 9.07a5.488 5.488 0 0 0 .435 5.51c1.049 1.285 2.782 1.825 4.477 2.353 1.695.527 3.435 1.067 4.1 2.359a2.698 2.698 0 0 1-.473 3.214c-.64.534-1.81.816-3.396.816A27.763 27.763 0 0 1 .06 22.43a8.599 8.599 0 0 0 0 2.038.947.947 0 0 0 .76.777c1.648.509 3.357.788 5.08.83a10.191 10.191 0 0 0 5.161-1.1 4.753 4.753 0 0 0 1.803-1.868c.417-.779.61-1.659.557-2.541a5.54 5.54 0 0 0-1.337-3.813M53.297 25.913a7.715 7.715 0 0 1-3.723-.97 7.05 7.05 0 0 1-2.66-2.527 10.322 10.322 0 0 1-1.184-3.606 20.216 20.216 0 0 1-.198-4.127c.128-2.45.825-4.397 2.079-5.786 1.337-1.491 3.198-2.244 5.596-2.244.352 0 .697 0 1.069.045 1.23.135 2.436.451 3.575.939V0h3.026v22.133c.012.973.12 1.941.32 2.893l.108.463-.454.154a3.711 3.711 0 0 1-1.203.225 1.682 1.682 0 0 1-1.279-.495 1.59 1.59 0 0 1-.396-.74c-1.177.914-2.559 1.287-4.67 1.287l-.006-.007Zm.895-16.309a5.221 5.221 0 0 0-3.729 1.228c-.985 1.01-1.567 3.156-1.522 5.6.045 2.442.697 4.538 1.708 5.508a4.881 4.881 0 0 0 3.588 1.286 4.322 4.322 0 0 0 2.61-.9 2.277 2.277 0 0 0 1.01-1.607V10.433c-1.149-.53-2.4-.8-3.665-.79M114.781 25.83a1.655 1.655 0 0 1-1.372-.483 1.67 1.67 0 0 1-.47-1.382v-7.22c0-3.001.07-5.836-1.695-6.775a4.008 4.008 0 0 0-1.849-.399 8.168 8.168 0 0 0-4.158 1.286v14.985h-3.262V13.628c0-1.286.039-2.507-.46-3.08-.499-.572-1.452-.938-2.75-.938-1.456.042-2.893.33-4.254.849v15.428h-3.269V9.392a1.207 1.207 0 0 1 .64-1.119c.34-.186.694-.349 1.055-.489a18.053 18.053 0 0 1 6.02-1.118c2.059 0 3.722.488 4.822 1.414a13.342 13.342 0 0 1 5.859-1.427 7.305 7.305 0 0 1 3.735.894 5.688 5.688 0 0 1 1.862 1.928c.998 1.71.972 3.947.972 6.506v6.158c-.065 1.12.034 2.245.294 3.337a3.555 3.555 0 0 1-1.714.36l-.006-.007ZM89.865 7.751a3.995 3.995 0 0 0-2.559-.642 6.17 6.17 0 0 0-3.985 1.652V7.269c0-.302-.121-.694-1.151-.527-1.03.167-2.117.52-2.117 1.119v17.761h3.268V12.02c.46-1.022 2.501-2.218 4.542-2.218.529-.003 1.058.04 1.58.129l.39.077c.18-.38.307-.782.377-1.196a1.11 1.11 0 0 0-.339-1.06" fill="#111"/></svg>