<svg width="87" height="26" fill="none" xmlns="http://www.w3.org/2000/svg"><path fill-rule="evenodd" clip-rule="evenodd" d="M61.836 18.39v-8.237h-10.51v8.237H48.34V.004h2.988v7.882h10.509V.004h2.987V18.39h-2.987ZM16.98 25.02h.47l-1.636-3.843-1.631 3.843h.47l.415-1.046h1.502l.42 1.046h-.01Zm-1.77-1.4.605-1.501.606 1.5h-1.212Zm28.178 1.4h.466l-1.632-3.843-1.636 3.843h.45l.42-1.046h1.502l.42 1.046h.01Zm-1.771-1.401.605-1.501.606 1.5h-1.211Z" fill="#111"/><path d="M60.128 21.403v3.619h.47v-3.619h-.47ZM22.21.004V18.39h2.99V.004h-2.99ZM14.948 0 9.053 12.456C9.083 12.426 3.098 0 3.098 0H0l9.033 18.391L18.04 0h-3.093Zm24.219 15.928c-4.389 0-7.602-2.823-7.602-6.73 0-3.91 3.213-6.732 7.602-6.732a8.507 8.507 0 0 1 5.08 1.637V1.195a11.22 11.22 0 0 0-5.08-1.191c-5.705 0-10.324 4.114-10.324 9.193 0 5.08 4.619 9.193 10.324 9.193a11.22 11.22 0 0 0 5.08-1.19v-2.908a8.508 8.508 0 0 1-5.08 1.636Zm-17.288 7.347v1.401h.455c.62 0 .89-.25.89-.69 0-.44-.29-.711-.94-.711h-.405Zm0-1.501v1.166h.21c.203.01.406-.022.595-.095a.431.431 0 0 0 .25-.45.57.57 0 0 0-.235-.526 1.362 1.362 0 0 0-.605-.095h-.215Zm-.35 3.262v-3.633h.595c.81 0 1.21.326 1.21 1.001a.805.805 0 0 1-.354.71.816.816 0 0 1 .5.336.946.946 0 0 1 .145.59.87.87 0 0 1-.375.771c-.26.172-.57.254-.88.236l-.842-.01Zm7.996-3.372a1.468 1.468 0 0 0-1.076.44 1.436 1.436 0 0 0-.44 1.052 1.42 1.42 0 0 0 .445 1.05 1.5 1.5 0 0 0 2.142 0 1.422 1.422 0 0 0 .446-1.05 1.436 1.436 0 0 0-.44-1.051 1.467 1.467 0 0 0-1.077-.44Zm0-.37a1.886 1.886 0 0 1 1.352.56 1.824 1.824 0 0 1 0 2.643 2.001 2.001 0 0 1-2.723 0 1.828 1.828 0 0 1 0-2.642 1.882 1.882 0 0 1 1.361-.546l.01-.015Zm24.662.37a1.456 1.456 0 0 0-1.076.44 1.466 1.466 0 0 0 0 2.103 1.503 1.503 0 0 0 2.142 0 1.461 1.461 0 0 0 0-2.102 1.445 1.445 0 0 0-1.07-.44h.004Zm0-.37a1.887 1.887 0 0 1 1.361.56 1.828 1.828 0 0 1 0 2.643 2.002 2.002 0 0 1-2.722 0 1.825 1.825 0 0 1 0-2.642 1.88 1.88 0 0 1 1.361-.546v-.015Zm24.526.56-.32.205a.696.696 0 0 0-.626-.39.596.596 0 0 0-.415.155.5.5 0 0 0-.126.607.442.442 0 0 0 .14.154c.115.084.24.153.37.205l.236.105c.225.085.432.21.61.37a.857.857 0 0 1 .256.64 1.055 1.055 0 0 1-.33.792 1.16 1.16 0 0 1-1.532.07 1.131 1.131 0 0 1-.39-.676l.39-.11a.79.79 0 0 0 .24.475.685.685 0 0 0 .5.19.746.746 0 0 0 .665-.426.665.665 0 0 0 .057-.274.586.586 0 0 0-.206-.46 1.872 1.872 0 0 0-.46-.256l-.215-.095a1.777 1.777 0 0 1-.55-.335.794.794 0 0 1-.236-.586.84.84 0 0 1 .305-.67c.195-.167.445-.257.701-.25a1 1 0 0 1 .936.56Zm-7.614 3.168V21.41h1.981v.376H71.5v1.07h1.461v.376H71.5v1.416h1.581v.375H71.1ZM9.462 21.41v3.237h.996v.375H9.057V21.41h.405Zm38.742.369v3.242h-.4V21.78h-.876v-.376h2.162v.376h-.886Zm-12.741.001v1.3h.125a1.37 1.37 0 0 0 .63-.114.55.55 0 0 0 .286-.53.56.56 0 0 0-.276-.551 1.452 1.452 0 0 0-.645-.106h-.12Zm0 1.656v1.586h-.4V21.41h.5c.886 0 1.326.33 1.326 1.001a.996.996 0 0 1-.245.69.947.947 0 0 1-.66.306l1.15 1.621h-.5l-1.091-1.586-.08-.005Zm29.969-1.656v1.3h.125a1.37 1.37 0 0 0 .63-.114.55.55 0 0 0 .286-.53.56.56 0 0 0-.275-.551 1.451 1.451 0 0 0-.646-.106h-.12Zm0 1.656v1.586h-.375V21.41h.5c.886 0 1.326.33 1.326 1.001a1 1 0 0 1-.245.69.956.956 0 0 1-.66.306l1.15 1.621h-.5l-1.07-1.591h-.126ZM86.45.004l-8.137 10.484v7.902h-2.768v-7.902L67.408.004h3.198l6.326 8.192L83.257.004h3.193Z" fill="#111"/></svg>